# xmcd
#
# Track frame offsets:
#	150
#	12092
#	30672
#	43952
#	56832
#	67590
#	79782
#	92725
#	103382
#	115980
#	128495
#
# Disc length: 1879 seconds
#
# Revision: 1
# Processed by: cddbd v1.5.2PL0 Copyright (c) Steve Scherf et al.
# Submitted via: audiograbber 1.83.01
#
DISCID=8b07550b
DTITLE=Pickett, Wilson - Hey Jude
DYEAR=1969
DGENRE=Soul
TTITLE0=Save me
TTITLE1=Hey Jude
TTITLE2=Back in your arms
TTITLE3=Toe hold
TTITLE4=Night owl
TTITLE5=My own style of loving
TTITLE6=A man and a half
TTITLE7=Sit down and talk this over
TTITLE8=Search your heart
TTITLE9=Born to be wild
TTITLE10=Poeple make the world
EXTD=
EXTT0=
EXTT1=
EXTT2=
EXTT3=
EXTT4=
EXTT5=
EXTT6=
EXTT7=
EXTT8=
EXTT9=
EXTT10=
PLAYORDER=
